<svg xmlns="http://www.w3.org/2000/svg" version="1.1" viewBox="-5.0 -10.0 110.0 135.0">
 <path d="m39.668 52.648c1.625 0 3.2227 0.19922 4.7617 0.57812 0.59766 0.14844 1.1836 0.32031 1.7578 0.52344 1.0781-3.6875 3.1992-6.9258 6.0117-9.3828 1.3086-1.1445 2.7656-2.1133 4.3398-2.8867-1.0156-3.1289-2.9297-5.8594-5.4258-7.8906-2.9023-2.3594-6.6172-3.7773-10.668-3.7773-4.6719 0-8.8984 1.8945-11.957 4.9531-3.0586 3.0586-4.9531 7.2891-4.9531 11.961 0 2.3164 0.46094 4.5195 1.3008 6.5234 0.58594 1.4023 1.3516 2.7031 2.2695 3.8789 3.4258-2.7969 7.8008-4.4766 12.566-4.4766zm-36.047-3.6289c-1.2695 0-2.2969-1.0273-2.2969-2.2969 0-1.2695 1.0273-2.2969 2.2969-2.2969h6.9492c1.2695 0 2.2969 1.0273 2.2969 2.2969 0 1.2695-1.0273 2.2969-2.2969 2.2969zm9.1602-26.711c-0.89844-0.89844-0.89844-2.3477 0-3.25 0.89844-0.89844 2.3477-0.89844 3.25 0l4.9102 4.9102c0.89844 0.89844 0.89844 2.3516 0 3.25-0.89844 0.89844-2.3516 0.89844-3.25 0zm25.367-12.41c0-1.2695 1.0273-2.2969 2.2969-2.2969 1.2695 0 2.2969 1.0273 2.2969 2.2969v6.9492c0 1.2695-1.0273 2.2969-2.2969 2.2969-1.2695 0-2.2969-1.0273-2.2969-2.2969zm26.711 9.1602c0.89844-0.89844 2.3516-0.89844 3.25 0 0.89844 0.89844 0.89844 2.3516 0 3.25l-4.9102 4.9102c-0.89844 0.89844-2.3477 0.89844-3.25 0-0.89844-0.89844-0.89844-2.3477 0-3.25zm-4.0039 20.895c1.4141-0.32031 2.8906-0.49219 4.3984-0.49219 5.4883 0 10.457 2.2266 14.055 5.8242 3.4805 3.4805 5.6758 8.2461 5.8125 13.527 3.5234 0.72266 6.6484 2.5352 9.0078 5.0742 2.8164 3.0312 4.543 7.0898 4.543 11.543 0 4.6875-1.8984 8.9297-4.9727 12-3.0703 3.0703-7.3125 4.9727-12 4.9727h-42.035c-5.4883 0-10.457-2.2266-14.055-5.8242s-5.8242-8.5664-5.8242-14.055c0-4.5469 1.5273-8.7383 4.0977-12.086-1.3516-1.6289-2.4648-3.457-3.293-5.4336-1.0664-2.5547-1.6562-5.3516-1.6562-8.2812 0-5.9414 2.4102-11.316 6.3008-15.207s9.2656-6.3008 15.207-6.3008c5.1328 0 9.8516 1.8047 13.559 4.8164 3.1445 2.5547 5.5508 5.9844 6.8555 9.9219z" fill-rule="evenodd"/>
<text x="0.0" y="117.5" font-size="5.0" font-weight="bold" font-family="Arbeit Regular, Helvetica, Arial-Unicode, Arial, Sans-serif" fill="#000000">Created by MCROIS</text><text x="0.0" y="122.5" font-size="5.0" font-weight="bold" font-family="Arbeit Regular, Helvetica, Arial-Unicode, Arial, Sans-serif" fill="#000000">from Noun Project</text></svg>