<svg xmlns="http://www.w3.org/2000/svg" version="1.1" viewBox="-5.0 -10.0 110.0 135.0">
 <path d="m27.555 40.426c1.0977-5.0859 4.0898-9.1758 8.5781-11.672 0.5-2.293 0.5-4.7891-0.30078-7.1836-0.69922-2.0938-1.8945-3.9883-3.293-5.4844 1.4961 8.8789-3.5898 17.754-12.367 20.648-3.2891 1.0977-6.8789 1.1953-10.172 0.39844 3.9883 4.0898 10.176 5.7852 15.961 3.9883 0.59766-0.19922 1.1953-0.49609 1.5938-0.69531zm56.758 17.953h-4.3906c-0.30078 0.10156-0.69922 0-0.99609-0.10156-0.69922-0.39844-0.89844-1.2969-0.59766-1.9961v-0.10156c0.59766-0.79688 0.69922-1.7969 0.69922-2.793 0-4.2891-4.3906-7.7812-9.875-7.7812h-2.5938c-0.79688 0-1.3984-0.69922-1.3984-1.4961 0-10.375-8.8789-15.16-17.457-15.16-3.293 0-6.3828 0.69922-9.1758 1.9961-0.10156 0.10156-0.10156 0.10156-0.19922 0.10156-4.6875 2.293-8.0781 6.4844-8.0781 13.066 0 1.5977 0.19922 3.293 0.59766 4.6875 0.10156 0.30078 0.10156 0.79688-0.10156 1.1953-0.19922 0.39844-0.69922 0.59766-1.1953 0.69922-4.1914 0.19922-7.4805 3.8906-7.4805 8.1797 0 4.5898 3.6914 8.2812 8.2812 8.2812h54.066c3.1875 0 5.582-1.9922 5.582-4.3867-0.10156-2.3945-2.6914-4.3906-5.6875-4.3906zm-45.484 13.867-5.6875 9.4766c-0.39844 0.69922-0.19922 1.5977 0.5 1.9961 0.19922 0.10156 0.5 0.19922 0.79688 0.19922 0.5 0 0.99609-0.30078 1.2969-0.69922l5.6875-9.4766c0.39844-0.69922 0.19922-1.5977-0.5-1.9961-0.69922-0.39844-1.5938-0.19922-2.0938 0.5zm12.469 0-5.6875 9.4766c-0.39844 0.69922-0.19922 1.5977 0.5 1.9961 0.19922 0.10156 0.5 0.19922 0.79688 0.19922 0.5 0 0.99609-0.30078 1.2969-0.69922l5.6875-9.4766c0.39844-0.69922 0.19922-1.5977-0.5-1.9961-0.69922-0.39844-1.5938-0.19922-2.0938 0.5zm12.469 0-5.7852 9.4766c-0.39844 0.69922-0.19922 1.5977 0.5 1.9961 0.19922 0.10156 0.5 0.19922 0.79688 0.19922 0.5 0 0.99609-0.30078 1.1953-0.69922l5.7852-9.4766c0.39844-0.69922 0.19922-1.5977-0.5-1.9961-0.69531-0.39844-1.5938-0.19922-1.9922 0.5zm12.469 0-5.6875 9.4766c-0.39844 0.69922-0.19922 1.5977 0.5 1.9961 0.19922 0.10156 0.5 0.19922 0.79688 0.19922 0.5 0 0.99609-0.30078 1.2969-0.69922l5.6875-9.4766c0.39844-0.69922 0.19922-1.5977-0.5-1.9961-0.79688-0.39844-1.6953-0.19922-2.0938 0.5z"/>
<text x="0.0" y="117.5" font-size="5.0" font-weight="bold" font-family="Arbeit Regular, Helvetica, Arial-Unicode, Arial, Sans-serif" fill="#000000">Created by ARIPATUT DASUKI</text><text x="0.0" y="122.5" font-size="5.0" font-weight="bold" font-family="Arbeit Regular, Helvetica, Arial-Unicode, Arial, Sans-serif" fill="#000000">from Noun Project</text></svg>